# xmcd CD database file
#
# Track frame offsets:
#	150
#	14100
#	35610
#	76070
#	122268
#	157103
#	176853
#	191720
#	217073
#	242818
#	264563
#	283188
#	310060
#
# Disc length: 4327 seconds
#
# Revision: 0
# Processed by: cddbd v1.5.2PL0 Copyright (c) Steve Scherf et al.
# Submitted via: CDex 1.60beta1-cs1
#
DISCID=be10e50d
DTITLE=Guns and Roses - Michl Mix
DYEAR=1993
DGENRE=Rhythmic Soul
TTITLE0=Live and let die
TTITLE1=Dont cry
TTITLE2=November Rain
TTITLE3=Coma
TTITLE4=Civil War
TTITLE5=14 years
TTITLE6=Yesterdays
TTITLE7=Knockin on heaven´s door
TTITLE8=Get in the ring
TTITLE9=Pretty tied up
TTITLE10=So Fine
TTITLE11=Patience
TTITLE12=Used to love her
EXTD=YEAR: 1993
EXTT0=
EXTT1=
EXTT2=
EXTT3=
EXTT4=
EXTT5=
EXTT6=
EXTT7=
EXTT8=
EXTT9=
EXTT10=
EXTT11=
EXTT12=
PLAYORDER=
